<svg id="Ebene_1" data-name="Ebene 1" xmlns="http://www.w3.org/2000/svg" viewBox="0 0 1920 472.64"><defs><style>.cls-1,.cls-2{fill:#fff;}.cls-2{opacity:0.7;}</style></defs><title>LOGO_VARIANT_WHITE-FADED</title><path class="cls-1" d="M579.86,273.32a47.71,47.71,0,0,1-14.42,35.05Q551,322.79,522.2,322.78H438.89V301.89h20.89V171.76H438.89V150.87h82.25q25.4,0,38.62,11.24T573,191.86a37.06,37.06,0,0,1-8.2,23.94,35.72,35.72,0,0,1-21.69,12.83v1.06q18.52,2.64,27.64,14.81T579.86,273.32Zm-32.54-75.64q0-14.81-8.46-20.36t-22.75-5.56H483.85v52.9h30.94Q547.33,224.66,547.32,197.68Zm6.62,74.59q0-28.3-31.74-28.3H483.85v57.92h33.32q17.19,0,27-7T553.94,272.27Z"/><path class="cls-1" d="M665.55,322.78H600V301.89h20.89V171.76H600V150.87h65.59v20.89H644.92V301.89h20.63Z"/><path class="cls-1" d="M901.46,171.76H879.25V301.89h20.63v20.89H836.66V301.89h18.52V205.35h-1.06l-54,107.12H788.26l-55.8-108.71H731.4v98.13h19.31v20.89H688V301.89h20.64V171.76H686.44V150.87h42.85l65.32,126.42h1.06l62.68-126.42h43.11Z"/><path class="cls-2" d="M1043.49,273.59q0,25.13-17.59,38.48t-45.62,13.36a125.62,125.62,0,0,1-32.53-4.1q-15.35-4.09-24.34-11l4-36.5,19.31,1.85-.53,21.43a60.14,60.14,0,0,0,16.8,5.95,89.9,89.9,0,0,0,16,1.45q16.39,0,27.64-6.21T1017.84,276q0-18-12.57-23.67a131.58,131.58,0,0,0-28.16-8.86,230.59,230.59,0,0,1-24.47-6.62,45.08,45.08,0,0,1-20.1-13.09q-8.07-9.12-8.07-26.58,0-25.65,17.2-37.29t39.67-11.63a105.15,105.15,0,0,1,29.88,4.36q14.82,4.36,23,11.24l1.58,35.17-19.3,1.85-2.91-24.06A54.45,54.45,0,0,0,998,171a76.86,76.86,0,0,0-15.08-1.59q-14.53,0-23.66,6.35t-9.13,18.78q0,14.55,11.11,19.7a127.16,127.16,0,0,0,24.59,8.33q11.11,2.39,24.6,6.48a53.94,53.94,0,0,1,23.28,14.15Q1043.49,253.22,1043.49,273.59Z"/><path class="cls-2" d="M1300.31,171.76H1286l-46.28,151h-18.52l-43.9-129.86h-1.06L1134,322.78h-18.78l-49.2-151h-14.81V150.87h62.15v20.89h-21.68l33.06,111.62H1126l37-111.62H1146.9V150.87h61.89v20.89h-15.6l37,112.67h1.32L1262,171.76h-23.27V150.87h61.63Z"/><path class="cls-2" d="M1458.73,322.78h-63.21V301.89h20.36l-10.57-28.57H1336l-11.37,28.57h22.48v20.89h-62.68V301.89h15.87l54.22-130.13h-26.45V150.87h51.83l61.9,151h16.92Zm-60.3-67.44-26.19-69.82h-1.58l-27.51,69.82Z"/><path class="cls-2" d="M1619.8,322.78h-37.29l-36.24-70.09h-32.79v49.2h21.68v20.89h-66.65V301.89h20.9V171.76h-20.9V150.87h75.38q32,0,46.81,13.62t14.81,36.1q0,16.93-9.38,29.62t-26.32,17.72l28.56,54h21.43Zm-39.94-121.66q0-15.6-9.12-22.48t-30.55-6.88h-26.71v61.36h27q21.69,0,30.55-8.46T1579.86,201.12Z"/><path class="cls-2" d="M1847.25,171.76H1825V301.89h20.63v20.89h-63.21V301.89H1801V205.35h-1l-54,107.12h-11.9l-55.8-108.71h-1.06v98.13h19.31v20.89h-62.69V301.89h20.63V171.76h-22.21V150.87h42.84l65.33,126.42h1.06l62.68-126.42h43.11Z"/><path class="cls-2" d="M268.34,171.05H75a96.68,96.68,0,0,1,96.69-96.68,96.65,96.65,0,0,0,96.68,96.68Z"/><path class="cls-1" d="M268.34,188.48a96.65,96.65,0,0,1-96.68,96.69,96.29,96.29,0,0,1,12.93-48.34A97.28,97.28,0,0,1,220,201.42,96.22,96.22,0,0,1,268.34,188.48Z"/><path class="cls-2" d="M365,285.17H171.66A96.2,96.2,0,0,0,220,272.23a96.59,96.59,0,0,0,48.34-83.75A96.64,96.64,0,0,1,365,285.17Z"/><path class="cls-1" d="M268.34,171.05a96.65,96.65,0,0,1-96.68-96.68,96.63,96.63,0,0,1,96.68,96.68Z"/><path class="cls-2" d="M365,74.37a96.65,96.65,0,0,1-96.69,96.68,96.63,96.63,0,0,0-96.68-96.68Z"/><path class="cls-1" d="M268.34,399.29a96.65,96.65,0,0,1-96.68-96.69,96.66,96.66,0,0,1,96.68,96.69Z"/><path class="cls-2" d="M268.34,399.29H75a96.66,96.66,0,0,1,96.69-96.69,96.65,96.65,0,0,0,96.68,96.69Z"/><path class="cls-2" d="M268.34,188.48A96.22,96.22,0,0,0,220,201.42a97.28,97.28,0,0,0-35.41,35.41,96.29,96.29,0,0,0-12.93,48.34A96.65,96.65,0,0,1,75,188.48Z"/><path class="cls-2" d="M365,302.6a96.69,96.69,0,0,1-96.69,96.69,96.66,96.66,0,0,0-96.68-96.69Z"/></svg>